<?xml version="1.0" encoding="utf-8"?>
<!-- Generator: Adobe Illustrator 19.2.1, SVG Export Plug-In . SVG Version: 6.00 Build 0)  -->
<svg version="1.1" id="Layer_1" xmlns="http://www.w3.org/2000/svg" xmlns:xlink="http://www.w3.org/1999/xlink" x="0px" y="0px"
	 viewBox="0 0 228.7 160.7" style="enable-background:new 0 0 228.7 160.7;" xml:space="preserve">
<style type="text/css">
	.st0{fill:#BD1B21;stroke:#EC008C;stroke-width:0.25;stroke-miterlimit:10;}
	.st1{fill:#D9272E;}
</style>
<g>
	<path class="st0" d="M72.2,108.1"/>
	<g>
		<path class="st1" d="M85.7,94.6c-0.7,1.9,0,2,0.9,2c0.9,0,4.8-0.2,6.2-0.4c1.5-0.2,1.6-1.4,1.8-2.5c0.1-1.1,2-17.9,2-17.9l-0.5,0
			C96.2,75.9,86.5,92.7,85.7,94.6z"/>
		<path class="st1" d="M50.7,74.6c1.1,0,3.9,0,5-0.4c1.7-0.7,3.1-1.6,4.5-3.3c1.6-2,3.6-8.1,3.3-11.1c-0.1-1.5-1.2-3-2.6-3.2
			c-0.6-0.1-3.1-0.1-4.4-0.2c-0.5,0-1.1,0.1-1.3,1c-0.2,0.9-4.8,14.7-5.1,16.2C49.8,74,50,74.6,50.7,74.6z"/>
		<path class="st1" d="M53.3,84.9c-0.6-0.2-2.5-0.3-4.7-0.4c-2.2-0.1-2.9,1.9-3.1,2.9c0,0-3.9,11.8-4.9,15c-0.9,3.2,2.3,2.6,4.6,2.4
			c2.2-0.2,4.4-1.3,5.9-3c2.6-2.7,4-8.6,4.4-12.2C56.1,86.1,53.9,85.1,53.3,84.9z"/>
		<path class="st1" d="M208,0.6L42.7,30.7c-7.4,1.9-13.6,4.4-17,16.6c-4.3,15.3-20.2,64.3-25.2,78.8c-2,6,1.5,10.8,7.2,10.3
			l175.1-0.1c8.6,0,17-6.6,19.2-15.9l26.4-101C229.8,14.2,226.1-3.6,208,0.6z M155.8,116c-2.2,0.1-8.7,0.3-10.4,0.4
			c-1.7,0.1-2.6-1-2.1-2.2c0.5-1.2,10.1-38,10.1-38s-17.2,37.4-17.8,38.6c-0.6,1.2-0.9,1.7-2.4,1.8c-1.5,0.1-3.4,0.1-4.9,0.2
			c-1.5,0.1-1.6-0.9-1.5-3c0.1-2.1,2.8-36.2,2.8-36.2s-9.9,36-10.3,37.5c-0.4,1.5-1.5,2.5-2.7,2.5c-0.8,0-4.6,0.1-7.6,0.1
			c0,0.5,0,0.8,0,1c0,1.5-0.1,4.2-3.2,4.2c-2.4,0-7.7,0.1-10.6,0.1c-1.9,0-4.5-0.3-4-3.6c0.4-3.3,1.2-8.7,1.4-10
			c0.1-1.3,0-1.8-0.9-1.9c-0.9-0.1-8.4,0.1-9.5,0.3c-1.1,0.1-2.3,0.7-3.4,3.1c-1.1,2.4-4.8,7.9-5.7,9.4c-0.9,1.5-2.2,3.3-4.3,3.4
			c-2.1,0.1-11.1-0.3-12.5-0.3c-1.3,0-2.4-1.6-1.7-3.4c0.2-0.5,1.1-2.2,2.5-4.7c-2.8,1.4-5.8,2.5-8.7,2.8c-8.3,1.1-20.3,0.3-22,0
			c-2.2-0.4-3.4-2.7-2.6-5.8c1.1-4,20.8-63.3,20.8-63.3c0.5-1.5,1.4-2.7,3.1-2.7c1.7-0.1,16.9-0.8,20-0.6c4,0.3,8.3,3.2,9,8.9
			c0.7,5.6-0.6,10.6-1.4,13c-0.7,2.2-1.8,4.6-3.8,7c-2.3,2.8-3.4,3.5-4.9,4.5c-0.6,0.4-0.7,0.7,0,1.3c0.4,0.3,3.2,1.5,4.6,6.3
			c0.3,1,0.4,2,0.5,3c11.9-20.5,25.6-43.9,25.6-43.9c0.5-1.1,1.4-2.9,3.6-3c2.5-0.1,5.9-0.2,7.1-0.2c1.2,0,2.1,0.4,2.3,3.2
			c0.1,1.7-0.5,31.5-1,52.5c6.2-18.7,15.4-46.3,15.4-46.3c0.3-1.6,1.6-3.7,3.7-3.8c2.1-0.1,8.1-0.4,9.5-0.3c1.4,0.1,4.2-0.3,3.8,3.1
			c-0.3,3.3-2.5,31.3-2.4,32.2c0.1,0.9,0.5,1.4,1.8-1.4c4.3-9,14-31,14.5-32.3c0.6-1.4,0.9-2.2,3.6-2.2c2.7-0.1,8-0.3,10-0.4
			c1.9-0.1,3.5-0.1,2.6,2.9c-0.9,2.9-12.4,61.6-12.9,63.6C158.6,115,158,115.9,155.8,116z M184.7,110.3c-0.6,3-1.9,9.8-2.5,11.5
			c-0.5,1.4-1.7,1.4-3.2,1.4c-1.5,0.1-8,0.1-9,0.1c-1,0-2.1-0.8-1.9-2.2c0.2-1.2,1.5-8.6,1.8-10.4c0.4-2.3,1.6-3.1,3.5-3.2
			c1.2,0,7.5,0,9.1-0.1C184.6,107.4,185.1,108.5,184.7,110.3z M204.2,37.1c-0.6,3-16.4,61.3-17.2,62.9c-0.8,1.6-1.5,1.8-3.3,1.9
			c-1.9,0.1-7.7,0-8.8-0.1c-1.1-0.1-2.3-1.5-2-3.3c1-4.9,6-26,12.5-60.4c0.3-1.4,1.4-3.6,3.6-3.9c2.2-0.3,12.4-0.1,13.3,0.1
			C203.3,34.3,204.8,34.2,204.2,37.1z"/>
	</g>
</g>
<g>
	<path class="st0" d="M516.4,45.8"/>
	<path class="st0" d="M423.5,108.1"/>
	<g>
		<path d="M369,149.1l4.6,0l6.4,11.6l-3.9,0l-1.1-2l-7.2,0l-1,2l-4,0L369,149.1z M369.1,156.1l4.5,0l-2.3-4.3L369.1,156.1z"/>
		<path d="M382.8,149.1l3.5,0l0,6.7c0,1.5,0.5,2,2,2l3.5,0c1.5,0,2-0.6,2-2l0-6.7l3.5,0l0,7.4c0,2.9-1.5,4.3-4.7,4.3l-5.1,0
			c-3.3,0-4.7-1.4-4.7-4.2L382.8,149.1z"/>
		<path d="M400.5,149.1l13.5,0l0,2.9l-5,0l0,8.7l-3.5,0l0-8.7l-5,0L400.5,149.1z"/>
		<path d="M416.9,153.1c0-3.4,1.9-4.2,5.1-4.2l5.7,0c3.2,0,5.1,0.8,5.1,4.2l0,3.5c0,3.4-1.9,4.2-5.1,4.2l-5.7,0
			c-3.2,0-5.1-0.8-5.1-4.2L416.9,153.1z M420.6,155.5c0,1.7,0.4,2.3,2,2.3l4.5,0c1.7,0,2-0.6,2-2.3l0-1.2c0-1.4-0.4-2.3-2.2-2.3
			l-4.2,0c-1.9,0-2.2,0.9-2.2,2.3V155.5z"/>
		<path d="M436.6,149.1l5.4,0l4,7.4l4-7.4l5.4,0l0,11.6l-3.5,0l0-8.3h0l-4.6,8.3l-2.7,0l-4.7-8.3h0l0,8.3l-3.5,0L436.6,149.1z"/>
		<path d="M459.2,153.1c0-3.4,1.9-4.2,5.1-4.2l5.7,0c3.2,0,5.1,0.8,5.1,4.2l0,3.5c0,3.4-1.9,4.2-5.1,4.2l-5.7,0
			c-3.2,0-5.1-0.8-5.1-4.2L459.2,153.1z M462.8,155.5c0,1.7,0.4,2.3,2,2.3l4.5,0c1.7,0,2-0.6,2-2.3v-1.2c0-1.4-0.4-2.3-2.2-2.3
			l-4.2,0c-1.9,0-2.2,0.9-2.2,2.3L462.8,155.5z"/>
		<path d="M478,149l13.5,0l0,2.9l-5,0l0,8.7l-3.5,0l0-8.7l-5,0L478,149z"/>
		<path d="M494.8,149l3.5,0l0,11.6l-3.5,0L494.8,149z"/>
		<path d="M501.4,149l3.9,0l4.5,8.6l4.5-8.6l3.9,0l-6.2,11.6l-4.4,0L501.4,149z"/>
		<path d="M521.1,149l12.7,0l0,2.7l-9.1,0v1.9l8.6,0l0,2.4l-8.6,0l0,1.9l9.3,0l0,2.8l-12.9,0L521.1,149z"/>
	</g>
	<g>
		<path d="M402,74.6c1.1,0,3.9,0,5-0.4c1.7-0.7,3.1-1.6,4.5-3.3c1.6-2,3.6-8.1,3.3-11.1c-0.1-1.5-1.2-3-2.6-3.2
			c-0.6-0.1-3.1-0.1-4.4-0.2c-0.5,0-1.1,0.1-1.3,1c-0.2,0.9-4.8,14.7-5.1,16.2C401.2,73.9,401.3,74.5,402,74.6z"/>
		<path d="M559.4,0.6L394.1,30.7c-7.4,1.9-13.6,4.4-17,16.6c-4.3,15.3-20.2,64.3-25.2,78.8c-2,6,1.5,10.8,7.2,10.3l175.1-0.1
			c8.6,0,17-6.6,19.2-15.9l26.4-101C581.1,14.1,577.5-3.6,559.4,0.6z M507.2,116c-2.2,0.1-8.7,0.3-10.4,0.4c-1.7,0.1-2.6-1-2.1-2.2
			c0.5-1.2,10.1-38,10.1-38s-17.2,37.4-17.8,38.6c-0.6,1.2-0.9,1.7-2.4,1.8c-1.5,0.1-3.4,0.1-4.9,0.2c-1.5,0.1-1.6-0.9-1.5-3
			c0.1-2.1,2.8-36.2,2.8-36.2s-9.9,36-10.3,37.5c-0.4,1.5-1.5,2.5-2.7,2.5c-0.8,0-4.6,0.1-7.6,0.1c0,0.5,0,0.8,0,1
			c0,1.5-0.1,4.2-3.2,4.2c-2.4,0-7.7,0.1-10.6,0.1c-1.9,0-4.5-0.3-4-3.6c0.4-3.3,1.2-8.7,1.4-10c0.1-1.3,0-1.8-0.9-1.9
			c-0.9-0.1-8.4,0.1-9.5,0.3c-1.1,0.1-2.3,0.7-3.4,3.1c-1.1,2.4-4.8,7.9-5.7,9.4c-0.9,1.5-2.2,3.3-4.3,3.4
			c-2.1,0.1-11.1-0.3-12.5-0.3c-1.3,0-2.4-1.6-1.7-3.4c0.2-0.5,1.1-2.2,2.5-4.7c-2.8,1.4-5.8,2.5-8.7,2.8c-8.3,1.1-20.3,0.3-22,0
			c-2.2-0.4-3.4-2.7-2.6-5.8c1.1-4,20.8-63.3,20.8-63.3c0.5-1.5,1.4-2.7,3.1-2.7c1.7-0.1,16.9-0.8,20-0.6c4,0.3,8.3,3.2,9,8.9
			c0.7,5.6-0.6,10.6-1.4,13c-0.7,2.2-1.8,4.6-3.8,7c-2.3,2.8-3.4,3.5-4.9,4.5c-0.6,0.4-0.7,0.7,0,1.3c0.4,0.3,3.2,1.5,4.6,6.3
			c0.3,1,0.4,2,0.5,3c11.9-20.5,25.6-43.9,25.6-43.9c0.5-1.1,1.4-2.9,3.6-3c2.5-0.1,5.9-0.2,7.1-0.2c1.2,0,2.1,0.4,2.3,3.2
			c0.1,1.7-0.5,31.5-1,52.5c6.2-18.7,15.4-46.3,15.4-46.3c0.3-1.6,1.6-3.7,3.7-3.8c2.1-0.1,8.1-0.4,9.5-0.3c1.4,0.1,4.2-0.3,3.8,3.1
			c-0.3,3.3-2.5,31.3-2.4,32.2c0.1,0.9,0.5,1.4,1.8-1.4c4.3-9,14-31,14.5-32.3c0.6-1.4,0.9-2.2,3.6-2.2c2.7-0.1,8-0.3,10-0.4
			c1.9-0.1,3.5-0.1,2.6,2.9c-0.9,2.9-12.4,61.6-12.9,63.6C509.9,114.9,509.3,115.9,507.2,116z M536,110.2c-0.6,3-1.9,9.8-2.5,11.5
			c-0.5,1.4-1.7,1.4-3.2,1.4c-1.5,0.1-8,0.1-9,0.1c-1,0-2.1-0.8-1.9-2.2c0.2-1.2,1.5-8.6,1.8-10.4c0.4-2.3,1.6-3.1,3.5-3.2
			c1.2,0,7.5,0,9.1-0.1C535.9,107.3,536.4,108.5,536,110.2z M555.6,37c-0.6,3-16.4,61.3-17.2,62.9c-0.8,1.6-1.5,1.8-3.3,1.9
			c-1.9,0.1-7.7,0-8.8-0.1c-1.1-0.1-2.3-1.5-2-3.3c1-4.9,6-26,12.5-60.4c0.3-1.4,1.4-3.6,3.6-3.9c2.2-0.3,12.4-0.1,13.3,0.1
			C554.6,34.2,556.2,34.2,555.6,37z"/>
		<path d="M404.7,84.8c-0.6-0.2-2.5-0.3-4.7-0.4c-2.2-0.1-2.9,1.9-3.1,2.9c0,0-3.9,11.8-4.9,15c-0.9,3.2,2.3,2.6,4.6,2.4
			c2.2-0.2,4.4-1.3,5.9-3c2.6-2.7,4-8.6,4.4-12.2C407.4,86.1,405.3,85,404.7,84.8z"/>
		<path d="M437.1,94.6c-0.7,1.9,0,2,0.9,2c0.9,0,4.8-0.2,6.2-0.4c1.5-0.2,1.6-1.4,1.8-2.5c0.1-1.1,2-17.9,2-17.9l-0.5,0
			C447.5,75.8,437.8,92.7,437.1,94.6z"/>
	</g>
</g>
</svg>
